# xmcd
#
# Track frame offsets: 
#        150
#        6247
#        31443
#        64171
#        89565
#
# Disc length: 1391 seconds
#
# Revision: 0
# Processed by: cddbd v1.5.2PL0 Copyright (c) Steve Scherf et al.
# Submitted via: ExactAudioCopy v1.3
#
DISCID=3c056d05
DTITLE=Ruins Of The Past - Alchemy Of Sorrow - Gold
DYEAR=2019
DGENRE=Melodic Doom Death Metal
TTITLE0=Prelude
TTITLE1=Gold (Alchemy of Sorrow - Pt. I)
TTITLE2=Rust (Alchemy of Sorrow - Pt. II)
TTITLE3=The Bitter Chalice
TTITLE4=Alchemy Of Sorrow
EXTD=
EXTT0=
EXTT1=
EXTT2=
EXTT3=
EXTT4=
PLAYORDER=
